<?xml version="1.0" encoding="iso-8859-1"?>
<!-- Generator: Adobe Illustrator 19.0.0, SVG Export Plug-In . SVG Version: 6.00 Build 0)  -->
<svg version="1.1" id="Layer_1" xmlns="http://www.w3.org/2000/svg" xmlns:xlink="http://www.w3.org/1999/xlink" x="0px" y="0px"
	 viewBox="0 0 511.988 511.988" style="enable-background:new 0 0 511.988 511.988;" xml:space="preserve">
<path style="fill:#434A54;" d="M148.663,64.022c-2.374,0-4.78-0.789-6.749-2.406c-4.562-3.727-5.234-10.469-1.5-15.031
	C141.945,44.687,179.336,0,257.506,0c78.584,0,111.801,45.21,113.176,47.132c3.406,4.797,2.312,11.453-2.5,14.883
	c-4.78,3.422-11.437,2.312-14.874-2.484c-0.031-0.047-7.156-9.656-22.437-19.102c-20.5-12.671-45.188-19.093-73.365-19.093
	c-28.344,0-53.874,6.5-75.857,19.319c-16.453,9.602-24.672,19.359-24.75,19.461C154.788,62.694,151.741,64.022,148.663,64.022z"/>
<path style="fill:#656D78;" d="M458.647,42.663H53.338c-17.641,0-31.999,14.359-31.999,31.999v405.326c0,17.656,14.358,32,31.999,32
	h405.31c17.656,0,32-14.344,32-32V74.662C490.647,57.022,476.305,42.663,458.647,42.663z"/>
<path style="fill:#434A54;" d="M436.648,469.332H74.009c-5.905,0-10.671-4.781-10.671-10.687V181.332
	c0-5.891,4.766-10.672,10.671-10.672h362.64c5.906,0,10.687,4.781,10.687,10.672v277.313
	C447.336,464.551,442.556,469.332,436.648,469.332z"/>
<g>
	<path style="fill:#AAB2BC;" d="M74.009,42.663H53.338c-17.641,0-31.999,14.359-31.999,31.999v20.672L74.009,42.663z"/>
	<path style="fill:#AAB2BC;" d="M490.647,95.334V74.662c0-17.64-14.344-31.999-32-31.999h-20.655L490.647,95.334z"/>
	<path style="fill:#AAB2BC;" d="M437.992,511.332h20.655c17.656,0,32-14.375,32-32v-20.687L437.992,511.332z"/>
	<path style="fill:#AAB2BC;" d="M21.339,459.333v20.655c0,17.656,14.358,32,31.999,32h20.671L21.339,459.333z"/>
</g>
<path style="fill:#ED5564;" d="M212.663,117.223c0,11.781-9.547,21.328-21.328,21.328c-11.78,0-21.327-9.547-21.327-21.328
	c0-11.788,9.547-21.335,21.327-21.335C203.115,95.889,212.663,105.435,212.663,117.223z"/>
<path style="fill:#DA4453;" d="M191.335,149.223c-17.64,0-31.999-14.359-31.999-32c0-17.647,14.359-31.999,31.999-31.999
	c17.641,0,32,14.352,32,31.999C223.335,134.864,208.974,149.223,191.335,149.223z M191.335,106.553
	c-5.89,0-10.671,4.788-10.671,10.671c0,5.875,4.781,10.664,10.671,10.664c5.875,0,10.672-4.789,10.672-10.664
	C202.007,111.341,197.21,106.553,191.335,106.553z"/>
<path style="fill:#ED5564;" d="M276.652,117.223c0,11.781-9.539,21.328-21.319,21.328c-11.781,0-21.328-9.547-21.328-21.328
	c0-11.788,9.547-21.335,21.328-21.335C267.113,95.889,276.652,105.435,276.652,117.223z"/>
<path style="fill:#DA4453;" d="M255.333,149.223c-17.641,0-31.999-14.359-31.999-32c0-17.647,14.358-31.999,31.999-31.999
	c17.632,0,32.006,14.352,32.006,31.999C287.34,134.864,272.965,149.223,255.333,149.223z M255.333,106.553
	c-5.891,0-10.672,4.788-10.672,10.671c0,5.875,4.781,10.664,10.672,10.664c5.875,0,10.671-4.789,10.671-10.664
	C266.004,111.341,261.208,106.553,255.333,106.553z"/>
<path style="fill:#ED5564;" d="M340.651,117.223c0,11.781-9.531,21.328-21.312,21.328s-21.344-9.547-21.344-21.328
	c0-11.788,9.562-21.335,21.344-21.335S340.651,105.435,340.651,117.223z"/>
<path style="fill:#DA4453;" d="M319.34,149.223c-17.656,0-32-14.359-32-32c0-17.647,14.344-31.999,32-31.999
	c17.625,0,31.999,14.352,31.999,31.999C351.339,134.864,336.965,149.223,319.34,149.223z M319.34,106.553
	c-5.906,0-10.688,4.788-10.688,10.671c0,5.875,4.781,10.664,10.688,10.664c5.875,0,10.656-4.789,10.656-10.664
	C329.996,111.341,325.215,106.553,319.34,106.553z"/>
<g>
	<path style="fill:#FFCE54;" d="M84.665,138.552c0,5.891-4.781,10.672-10.656,10.672c-5.905,0-10.671-4.781-10.671-10.672
		s4.766-10.664,10.671-10.664C79.884,127.888,84.665,132.661,84.665,138.552z"/>
	<path style="fill:#FFCE54;" d="M116.664,138.552c0,5.891-4.781,10.672-10.655,10.672c-5.906,0-10.672-4.781-10.672-10.672
		s4.766-10.664,10.672-10.664C111.883,127.888,116.664,132.661,116.664,138.552z"/>
	<path style="fill:#FFCE54;" d="M148.663,138.552c0,5.891-4.78,10.672-10.655,10.672c-5.906,0-10.672-4.781-10.672-10.672
		s4.766-10.664,10.672-10.664C143.883,127.888,148.663,132.661,148.663,138.552z"/>
	<path style="fill:#FFCE54;" d="M84.665,106.662c0,5.89-4.781,10.671-10.656,10.671c-5.905,0-10.671-4.781-10.671-10.671
		c0-5.891,4.766-10.664,10.671-10.664C79.884,95.998,84.665,100.771,84.665,106.662z"/>
	<path style="fill:#FFCE54;" d="M116.664,106.662c0,5.89-4.781,10.671-10.655,10.671c-5.906,0-10.672-4.781-10.672-10.671
		c0-5.891,4.766-10.664,10.672-10.664C111.883,95.998,116.664,100.771,116.664,106.662z"/>
	<path style="fill:#FFCE54;" d="M148.663,106.662c0,5.89-4.78,10.671-10.655,10.671c-5.906,0-10.672-4.781-10.672-10.671
		c0-5.891,4.766-10.664,10.672-10.664C143.883,95.998,148.663,100.771,148.663,106.662z"/>
	<path style="fill:#FFCE54;" d="M383.337,138.552c0,5.891-4.781,10.672-10.688,10.672c-5.875,0-10.655-4.781-10.655-10.672
		s4.78-10.664,10.655-10.664C378.556,127.888,383.337,132.661,383.337,138.552z"/>
	<path style="fill:#FFCE54;" d="M415.337,138.552c0,5.891-4.781,10.672-10.688,10.672c-5.875,0-10.656-4.781-10.656-10.672
		s4.781-10.664,10.656-10.664C410.556,127.888,415.337,132.661,415.337,138.552z"/>
	<path style="fill:#FFCE54;" d="M447.336,138.552c0,5.891-4.78,10.672-10.687,10.672c-5.875,0-10.656-4.781-10.656-10.672
		s4.781-10.664,10.656-10.664C442.556,127.888,447.336,132.661,447.336,138.552z"/>
</g>
<g style="opacity:0.2;">
	<path d="M106.009,223.995c5.874,0,10.655-4.773,10.655-10.664c0-5.891-4.781-10.672-10.655-10.672
		c-5.906,0-10.672,4.781-10.672,10.672S100.102,223.995,106.009,223.995z"/>
</g>
<g style="opacity:0.2;">
	<path d="M148.663,223.995c5.891,0,10.672-4.773,10.672-10.664c0-5.891-4.781-10.672-10.672-10.672
		c-5.89,0-10.655,4.781-10.655,10.672S142.773,223.995,148.663,223.995z"/>
</g>
<g style="opacity:0.2;">
	<path d="M191.335,223.995c5.891,0,10.672-4.773,10.672-10.664c0-5.891-4.781-10.672-10.672-10.672
		c-5.89,0-10.671,4.781-10.671,10.672S185.444,223.995,191.335,223.995z"/>
</g>
<g style="opacity:0.2;">
	<path d="M234.005,223.995c5.875,0,10.656-4.773,10.656-10.664c0-5.891-4.781-10.672-10.656-10.672
		c-5.906,0-10.671,4.781-10.671,10.672S228.098,223.995,234.005,223.995z"/>
</g>
<g style="opacity:0.2;">
	<path d="M276.652,223.995c5.906,0,10.687-4.773,10.687-10.664c0-5.891-4.78-10.672-10.687-10.672
		c-5.883,0-10.648,4.781-10.648,10.672S270.77,223.995,276.652,223.995z"/>
</g>
<g style="opacity:0.2;">
	<path d="M319.34,223.995c5.875,0,10.656-4.773,10.656-10.664c0-5.891-4.781-10.672-10.656-10.672
		c-5.906,0-10.688,4.781-10.688,10.672S313.432,223.995,319.34,223.995z"/>
</g>
<g style="opacity:0.2;">
	<path d="M361.995,223.995c5.874,0,10.655-4.773,10.655-10.664c0-5.891-4.781-10.672-10.655-10.672
		c-5.906,0-10.656,4.781-10.656,10.672S356.089,223.995,361.995,223.995z"/>
</g>
<g style="opacity:0.2;">
	<path d="M127.336,245.33c5.891,0,10.672-4.781,10.672-10.672c0-5.89-4.781-10.663-10.672-10.663
		c-5.891,0-10.672,4.773-10.672,10.663C116.664,240.549,121.445,245.33,127.336,245.33z"/>
</g>
<g style="opacity:0.2;">
	<path d="M170.008,245.33c5.875,0,10.656-4.781,10.656-10.672c0-5.89-4.781-10.663-10.656-10.663
		c-5.906,0-10.672,4.773-10.672,10.663C159.335,240.549,164.1,245.33,170.008,245.33z"/>
</g>
<g style="opacity:0.2;">
	<path d="M340.651,245.33c5.905,0,10.687-4.781,10.687-10.672c0-5.89-4.781-10.663-10.687-10.663
		c-5.875,0-10.656,4.773-10.656,10.663C329.996,240.549,334.776,245.33,340.651,245.33z"/>
</g>
<g style="opacity:0.2;">
	<path d="M383.337,245.33c5.875,0,10.656-4.781,10.656-10.672c0-5.89-4.781-10.663-10.656-10.663
		c-5.906,0-10.688,4.773-10.688,10.663C372.65,240.549,377.431,245.33,383.337,245.33z"/>
</g>
<g style="opacity:0.2;">
	<path d="M404.65,223.995c5.906,0,10.688-4.773,10.688-10.664c0-5.891-4.781-10.672-10.688-10.672
		c-5.875,0-10.656,4.781-10.656,10.672S398.775,223.995,404.65,223.995z"/>
</g>
<g style="opacity:0.2;">
	<path d="M106.009,266.658c5.874,0,10.655-4.773,10.655-10.664s-4.781-10.664-10.655-10.664c-5.906,0-10.672,4.773-10.672,10.664
		S100.102,266.658,106.009,266.658z"/>
</g>
<g style="opacity:0.2;">
	<path d="M148.663,245.33c-5.89,0-10.655,4.773-10.655,10.664s4.766,10.664,10.655,10.664c5.891,0,10.672-4.773,10.672-10.664
		S154.555,245.33,148.663,245.33z"/>
</g>
<g style="opacity:0.2;">
	<path d="M361.995,266.658c5.874,0,10.655-4.773,10.655-10.664s-4.781-10.664-10.655-10.664c-5.906,0-10.656,4.773-10.656,10.664
		S356.089,266.658,361.995,266.658z"/>
</g>
<g style="opacity:0.2;">
	<path d="M127.336,266.658c-5.891,0-10.672,4.781-10.672,10.68c0,5.874,4.781,10.655,10.672,10.655
		c5.891,0,10.672-4.781,10.672-10.655C138.008,271.439,133.227,266.658,127.336,266.658z"/>
</g>
<g style="opacity:0.2;">
	<path d="M170.008,266.658c-5.906,0-10.672,4.781-10.672,10.68c0,5.874,4.766,10.655,10.672,10.655
		c5.875,0,10.656-4.781,10.656-10.655C180.663,271.439,175.883,266.658,170.008,266.658z"/>
</g>
<g style="opacity:0.2;">
	<path d="M212.663,266.658c-5.891,0-10.656,4.781-10.656,10.68c0,5.874,4.766,10.655,10.656,10.655
		c5.89,0,10.672-4.781,10.672-10.655C223.335,271.439,218.553,266.658,212.663,266.658z"/>
</g>
<g style="opacity:0.2;">
	<path d="M255.333,266.658c-5.891,0-10.672,4.781-10.672,10.68c0,5.874,4.781,10.655,10.672,10.655s10.671-4.781,10.671-10.655
		C266.004,271.439,261.224,266.658,255.333,266.658z"/>
</g>
<g style="opacity:0.2;">
	<path d="M297.996,266.658c-5.906,0-10.656,4.781-10.656,10.68c0,5.874,4.75,10.655,10.656,10.655
		c5.875,0,10.656-4.781,10.656-10.655C308.651,271.439,303.871,266.658,297.996,266.658z"/>
</g>
<g style="opacity:0.2;">
	<path d="M340.651,266.658c-5.875,0-10.656,4.781-10.656,10.68c0,5.874,4.781,10.655,10.656,10.655
		c5.905,0,10.687-4.781,10.687-10.655C351.339,271.439,346.556,266.658,340.651,266.658z"/>
</g>
<g style="opacity:0.2;">
	<path d="M383.337,266.658c-5.906,0-10.688,4.781-10.688,10.68c0,5.874,4.781,10.655,10.688,10.655
		c5.875,0,10.656-4.781,10.656-10.655C393.993,271.439,389.212,266.658,383.337,266.658z"/>
</g>
<g style="opacity:0.2;">
	<path d="M404.65,245.33c-5.875,0-10.656,4.773-10.656,10.664s4.781,10.664,10.656,10.664c5.906,0,10.688-4.773,10.688-10.664
		S410.556,245.33,404.65,245.33z"/>
</g>
<g style="opacity:0.2;">
	<path d="M106.009,309.336c5.874,0,10.655-4.78,10.655-10.687c0-5.875-4.781-10.656-10.655-10.656
		c-5.906,0-10.672,4.781-10.672,10.656C95.337,304.556,100.102,309.336,106.009,309.336z"/>
</g>
<g style="opacity:0.2;">
	<path d="M148.663,309.336c5.891,0,10.672-4.78,10.672-10.687c0-5.875-4.781-10.656-10.672-10.656
		c-5.89,0-10.655,4.781-10.655,10.656C138.008,304.556,142.773,309.336,148.663,309.336z"/>
</g>
<g style="opacity:0.2;">
	<path d="M191.335,309.336c5.891,0,10.672-4.78,10.672-10.687c0-5.875-4.781-10.656-10.672-10.656
		c-5.89,0-10.671,4.781-10.671,10.656C180.663,304.556,185.444,309.336,191.335,309.336z"/>
</g>
<g style="opacity:0.2;">
	<path d="M234.005,309.336c5.875,0,10.656-4.78,10.656-10.687c0-5.875-4.781-10.656-10.656-10.656
		c-5.906,0-10.671,4.781-10.671,10.656C223.335,304.556,228.098,309.336,234.005,309.336z"/>
</g>
<g style="opacity:0.2;">
	<path d="M276.652,309.336c5.906,0,10.687-4.78,10.687-10.687c0-5.875-4.78-10.656-10.687-10.656
		c-5.883,0-10.648,4.781-10.648,10.656C266.004,304.556,270.77,309.336,276.652,309.336z"/>
</g>
<g style="opacity:0.2;">
	<path d="M319.34,309.336c5.875,0,10.656-4.78,10.656-10.687c0-5.875-4.781-10.656-10.656-10.656
		c-5.906,0-10.688,4.781-10.688,10.656C308.651,304.556,313.432,309.336,319.34,309.336z"/>
</g>
<g style="opacity:0.2;">
	<path d="M361.995,309.336c5.874,0,10.655-4.78,10.655-10.687c0-5.875-4.781-10.656-10.655-10.656
		c-5.906,0-10.656,4.781-10.656,10.656C351.339,304.556,356.089,309.336,361.995,309.336z"/>
</g>
<g style="opacity:0.2;">
	<path d="M127.336,330.648c5.891,0,10.672-4.766,10.672-10.656s-4.781-10.656-10.672-10.656c-5.891,0-10.672,4.766-10.672,10.656
		S121.445,330.648,127.336,330.648z"/>
</g>
<g style="opacity:0.2;">
	<path d="M170.008,309.336c-5.906,0-10.672,4.766-10.672,10.656s4.766,10.656,10.672,10.656c5.875,0,10.656-4.766,10.656-10.656
		S175.883,309.336,170.008,309.336z"/>
</g>
<g style="opacity:0.2;">
	<path d="M212.663,309.336c-5.891,0-10.656,4.766-10.656,10.656s4.766,10.656,10.656,10.656c5.89,0,10.672-4.766,10.672-10.656
		S218.553,309.336,212.663,309.336z"/>
</g>
<g style="opacity:0.2;">
	<path d="M255.333,309.336c-5.891,0-10.672,4.766-10.672,10.656s4.781,10.656,10.672,10.656s10.671-4.766,10.671-10.656
		S261.224,309.336,255.333,309.336z"/>
</g>
<g style="opacity:0.2;">
	<path d="M297.996,309.336c-5.906,0-10.656,4.766-10.656,10.656s4.75,10.656,10.656,10.656c5.875,0,10.656-4.766,10.656-10.656
		S303.871,309.336,297.996,309.336z"/>
</g>
<g style="opacity:0.2;">
	<path d="M340.651,309.336c-5.875,0-10.656,4.766-10.656,10.656s4.781,10.656,10.656,10.656c5.905,0,10.687-4.766,10.687-10.656
		S346.556,309.336,340.651,309.336z"/>
</g>
<g style="opacity:0.2;">
	<path d="M383.337,309.336c-5.906,0-10.688,4.766-10.688,10.656s4.781,10.656,10.688,10.656c5.875,0,10.656-4.766,10.656-10.656
		S389.212,309.336,383.337,309.336z"/>
</g>
<g style="opacity:0.2;">
	<path d="M404.65,287.993c-5.875,0-10.656,4.781-10.656,10.656c0,5.906,4.781,10.687,10.656,10.687
		c5.906,0,10.688-4.78,10.688-10.687C415.337,292.774,410.556,287.993,404.65,287.993z"/>
</g>
<g style="opacity:0.2;">
	<path d="M106.009,351.992c5.874,0,10.655-4.781,10.655-10.656c0-5.906-4.781-10.688-10.655-10.688
		c-5.906,0-10.672,4.781-10.672,10.688C95.337,347.211,100.102,351.992,106.009,351.992z"/>
</g>
<g style="opacity:0.2;">
	<path d="M148.663,330.648c-5.89,0-10.655,4.781-10.655,10.688c0,5.875,4.766,10.656,10.655,10.656
		c5.891,0,10.672-4.781,10.672-10.656C159.335,335.43,154.555,330.648,148.663,330.648z"/>
</g>
<g style="opacity:0.2;">
	<path d="M191.335,330.648c-5.89,0-10.671,4.781-10.671,10.688c0,5.875,4.781,10.656,10.671,10.656
		c5.891,0,10.672-4.781,10.672-10.656C202.007,335.43,197.224,330.648,191.335,330.648z"/>
</g>
<g style="opacity:0.2;">
	<path d="M234.005,330.648c-5.906,0-10.671,4.781-10.671,10.688c0,5.875,4.765,10.656,10.671,10.656
		c5.875,0,10.656-4.781,10.656-10.656C244.661,335.43,239.88,330.648,234.005,330.648z"/>
</g>
<g style="opacity:0.2;">
	<path d="M276.652,330.648c-5.883,0-10.648,4.781-10.648,10.688c0,5.875,4.766,10.656,10.648,10.656
		c5.906,0,10.687-4.781,10.687-10.656C287.34,335.43,282.559,330.648,276.652,330.648z"/>
</g>
<g style="opacity:0.2;">
	<path d="M319.34,330.648c-5.906,0-10.688,4.781-10.688,10.688c0,5.875,4.781,10.656,10.688,10.656
		c5.875,0,10.656-4.781,10.656-10.656C329.996,335.43,325.215,330.648,319.34,330.648z"/>
</g>
<g style="opacity:0.2;">
	<path d="M361.995,330.648c-5.906,0-10.656,4.781-10.656,10.688c0,5.875,4.75,10.656,10.656,10.656
		c5.874,0,10.655-4.781,10.655-10.656C372.65,335.43,367.868,330.648,361.995,330.648z"/>
</g>
<g style="opacity:0.2;">
	<path d="M127.336,373.335c5.891,0,10.672-4.781,10.672-10.688c0-5.874-4.781-10.655-10.672-10.655
		c-5.891,0-10.672,4.781-10.672,10.655C116.664,368.554,121.445,373.335,127.336,373.335z"/>
</g>
<g style="opacity:0.2;">
	<path d="M170.008,373.335c5.875,0,10.656-4.781,10.656-10.688c0-5.874-4.781-10.655-10.656-10.655
		c-5.906,0-10.672,4.781-10.672,10.655C159.335,368.554,164.1,373.335,170.008,373.335z"/>
</g>
<g style="opacity:0.2;">
	<path d="M212.663,373.335c5.891,0,10.672-4.781,10.672-10.688c0-5.874-4.781-10.655-10.672-10.655s-10.656,4.781-10.656,10.655
		C202.007,368.554,206.771,373.335,212.663,373.335z"/>
</g>
<g style="opacity:0.2;">
	<path d="M255.333,373.335c5.891,0,10.671-4.781,10.671-10.688c0-5.874-4.78-10.655-10.671-10.655
		c-5.891,0-10.672,4.781-10.672,10.655C244.661,368.554,249.443,373.335,255.333,373.335z"/>
</g>
<g style="opacity:0.2;">
	<path d="M297.996,373.335c5.875,0,10.656-4.781,10.656-10.688c0-5.874-4.781-10.655-10.656-10.655
		c-5.906,0-10.656,4.781-10.656,10.655C287.34,368.554,292.09,373.335,297.996,373.335z"/>
</g>
<g style="opacity:0.2;">
	<path d="M340.651,373.335c5.905,0,10.687-4.781,10.687-10.688c0-5.874-4.781-10.655-10.687-10.655
		c-5.875,0-10.656,4.781-10.656,10.655C329.996,368.554,334.776,373.335,340.651,373.335z"/>
</g>
<g style="opacity:0.2;">
	<path d="M383.337,373.335c5.875,0,10.656-4.781,10.656-10.688c0-5.874-4.781-10.655-10.656-10.655
		c-5.906,0-10.688,4.781-10.688,10.655C372.65,368.554,377.431,373.335,383.337,373.335z"/>
</g>
<g style="opacity:0.2;">
	<path d="M404.65,330.648c-5.875,0-10.656,4.781-10.656,10.688c0,5.875,4.781,10.656,10.656,10.656
		c5.906,0,10.688-4.781,10.688-10.656C415.337,335.43,410.556,330.648,404.65,330.648z"/>
</g>
<g style="opacity:0.2;">
	<path d="M106.009,394.646c5.874,0,10.655-4.766,10.655-10.656s-4.781-10.655-10.655-10.655c-5.906,0-10.672,4.766-10.672,10.655
		C95.337,389.881,100.102,394.646,106.009,394.646z"/>
</g>
<g style="opacity:0.2;">
	<path d="M148.663,394.646c5.891,0,10.672-4.766,10.672-10.656s-4.781-10.655-10.672-10.655c-5.89,0-10.655,4.766-10.655,10.655
		C138.008,389.881,142.773,394.646,148.663,394.646z"/>
</g>
<g style="opacity:0.2;">
	<path d="M191.335,394.646c5.891,0,10.672-4.766,10.672-10.656s-4.781-10.655-10.672-10.655c-5.89,0-10.671,4.766-10.671,10.655
		C180.663,389.881,185.444,394.646,191.335,394.646z"/>
</g>
<g style="opacity:0.2;">
	<path d="M234.005,394.646c5.875,0,10.656-4.766,10.656-10.656s-4.781-10.655-10.656-10.655c-5.906,0-10.671,4.766-10.671,10.655
		C223.335,389.881,228.098,394.646,234.005,394.646z"/>
</g>
<g style="opacity:0.2;">
	<path d="M276.652,394.646c5.906,0,10.687-4.766,10.687-10.656s-4.78-10.655-10.687-10.655c-5.883,0-10.648,4.766-10.648,10.655
		C266.004,389.881,270.77,394.646,276.652,394.646z"/>
</g>
<g style="opacity:0.2;">
	<path d="M319.34,394.646c5.875,0,10.656-4.766,10.656-10.656s-4.781-10.655-10.656-10.655c-5.906,0-10.688,4.766-10.688,10.655
		C308.651,389.881,313.432,394.646,319.34,394.646z"/>
</g>
<g style="opacity:0.2;">
	<path d="M361.995,394.646c5.874,0,10.655-4.766,10.655-10.656s-4.781-10.655-10.655-10.655c-5.906,0-10.656,4.766-10.656,10.655
		C351.339,389.881,356.089,394.646,361.995,394.646z"/>
</g>
<g style="opacity:0.2;">
	<path d="M127.336,394.646c-5.891,0-10.672,4.781-10.672,10.688c0,5.875,4.781,10.656,10.672,10.656
		c5.891,0,10.672-4.781,10.672-10.656C138.008,399.428,133.227,394.646,127.336,394.646z"/>
</g>
<g style="opacity:0.2;">
	<path d="M170.008,394.646c-5.906,0-10.672,4.781-10.672,10.688c0,5.875,4.766,10.656,10.672,10.656
		c5.875,0,10.656-4.781,10.656-10.656C180.663,399.428,175.883,394.646,170.008,394.646z"/>
</g>
<g style="opacity:0.2;">
	<path d="M212.663,394.646c-5.891,0-10.656,4.781-10.656,10.688c0,5.875,4.766,10.656,10.656,10.656
		c5.89,0,10.672-4.781,10.672-10.656C223.335,399.428,218.553,394.646,212.663,394.646z"/>
</g>
<g style="opacity:0.2;">
	<path d="M255.333,394.646c-5.891,0-10.672,4.781-10.672,10.688c0,5.875,4.781,10.656,10.672,10.656s10.671-4.781,10.671-10.656
		C266.004,399.428,261.224,394.646,255.333,394.646z"/>
</g>
<g style="opacity:0.2;">
	<path d="M297.996,394.646c-5.906,0-10.656,4.781-10.656,10.688c0,5.875,4.75,10.656,10.656,10.656
		c5.875,0,10.656-4.781,10.656-10.656C308.651,399.428,303.871,394.646,297.996,394.646z"/>
</g>
<g style="opacity:0.2;">
	<path d="M340.651,394.646c-5.875,0-10.656,4.781-10.656,10.688c0,5.875,4.781,10.656,10.656,10.656
		c5.905,0,10.687-4.781,10.687-10.656C351.339,399.428,346.556,394.646,340.651,394.646z"/>
</g>
<g style="opacity:0.2;">
	<path d="M383.337,394.646c-5.906,0-10.688,4.781-10.688,10.688c0,5.875,4.781,10.656,10.688,10.656
		c5.875,0,10.656-4.781,10.656-10.656C393.993,399.428,389.212,394.646,383.337,394.646z"/>
</g>
<g style="opacity:0.2;">
	<path d="M404.65,373.335c-5.875,0-10.656,4.766-10.656,10.655c0,5.891,4.781,10.656,10.656,10.656
		c5.906,0,10.688-4.766,10.688-10.656S410.556,373.335,404.65,373.335z"/>
</g>
<g style="opacity:0.2;">
	<path d="M106.009,415.99c-5.906,0-10.672,4.781-10.672,10.656c0,5.906,4.766,10.688,10.672,10.688
		c5.874,0,10.655-4.781,10.655-10.688C116.664,420.771,111.883,415.99,106.009,415.99z"/>
</g>
<g style="opacity:0.2;">
	<path d="M148.663,415.99c-5.89,0-10.655,4.781-10.655,10.656c0,5.906,4.766,10.688,10.655,10.688
		c5.891,0,10.672-4.781,10.672-10.688C159.335,420.771,154.555,415.99,148.663,415.99z"/>
</g>
<g style="opacity:0.2;">
	<path d="M191.335,415.99c-5.89,0-10.671,4.781-10.671,10.656c0,5.906,4.781,10.688,10.671,10.688
		c5.891,0,10.672-4.781,10.672-10.688C202.007,420.771,197.224,415.99,191.335,415.99z"/>
</g>
<g style="opacity:0.2;">
	<path d="M234.005,415.99c-5.906,0-10.671,4.781-10.671,10.656c0,5.906,4.765,10.688,10.671,10.688
		c5.875,0,10.656-4.781,10.656-10.688C244.661,420.771,239.88,415.99,234.005,415.99z"/>
</g>
<g style="opacity:0.2;">
	<path d="M276.652,415.99c-5.883,0-10.648,4.781-10.648,10.656c0,5.906,4.766,10.688,10.648,10.688
		c5.906,0,10.687-4.781,10.687-10.688C287.34,420.771,282.559,415.99,276.652,415.99z"/>
</g>
<g style="opacity:0.2;">
	<path d="M319.34,415.99c-5.906,0-10.688,4.781-10.688,10.656c0,5.906,4.781,10.688,10.688,10.688
		c5.875,0,10.656-4.781,10.656-10.688C329.996,420.771,325.215,415.99,319.34,415.99z"/>
</g>
<g style="opacity:0.2;">
	<path d="M361.995,415.99c-5.906,0-10.656,4.781-10.656,10.656c0,5.906,4.75,10.688,10.656,10.688
		c5.874,0,10.655-4.781,10.655-10.688C372.65,420.771,367.868,415.99,361.995,415.99z"/>
</g>
<g style="opacity:0.2;">
	<path d="M404.65,415.99c-5.875,0-10.656,4.781-10.656,10.656c0,5.906,4.781,10.688,10.656,10.688
		c5.906,0,10.688-4.781,10.688-10.688C415.337,420.771,410.556,415.99,404.65,415.99z"/>
</g>
<path style="fill:#ED5564;" d="M307.901,255.994H202.007c-5.906,0-10.672-4.773-10.672-10.664c0-5.891,4.766-10.672,10.672-10.672
	h105.896c5.875,0,10.656,4.781,10.656,10.672S313.776,255.994,307.901,255.994z"/>
<path style="fill:#434A54;" d="M436.648,117.333H372.65c-5.875,0-10.655-4.781-10.655-10.671c0-5.891,4.78-10.664,10.655-10.664
	h63.999c5.906,0,10.687,4.773,10.687,10.664C447.336,112.552,442.556,117.333,436.648,117.333z"/>
<g>
</g>
<g>
</g>
<g>
</g>
<g>
</g>
<g>
</g>
<g>
</g>
<g>
</g>
<g>
</g>
<g>
</g>
<g>
</g>
<g>
</g>
<g>
</g>
<g>
</g>
<g>
</g>
<g>
</g>
</svg>
